<svg xmlns="http://www.w3.org/2000/svg" enable-background="new 0 0 24 24" height="24px" viewBox="0 0 24 24" width="24px" fill="#000000"><rect fill="none" height="24" width="24"/><path d="M3.36,21.77c0.43,0.35,1.06,0.29,1.41-0.13l2.76-3.33C8.32,18.77,9.15,19,10,19c4,0,10-4.84,10-14c0-1.25-0.28-3-0.28-3 c0,0-1.77,0.05-3,0.29C7.72,4,4.09,10.81,4.84,14.73c0.16,0.83,0.54,1.61,1.15,2.3l-2.76,3.33C2.88,20.79,2.94,21.42,3.36,21.77z M17.09,4.25c0.26-0.05,0.56-0.09,0.87-0.12L7.98,16.19c-0.65-0.54-1.05-1.16-1.18-1.83C6.27,11.54,9.24,5.75,17.09,4.25z"/></svg>